<?xml version="1.0" encoding="utf-8"?>
<!-- Generator: Adobe Illustrator 23.0.0, SVG Export Plug-In . SVG Version: 6.00 Build 0)  -->
<svg version="1.1" id="Layer_1" xmlns="http://www.w3.org/2000/svg" xmlns:xlink="http://www.w3.org/1999/xlink" x="0px" y="0px"
	 viewBox="0 0 792 792" style="enable-background:new 0 0 792 792;" xml:space="preserve">
<style type="text/css">
	.st0{stroke:#ED1C24;stroke-miterlimit:10;}
	.st1{fill:none;stroke:#000000;stroke-miterlimit:10;}
</style>
<g>
	<path d="M70.02,66.44h8.88c7.55,0,11.77,2.89,11.77,8.88c0,3.88-2.16,6.88-6.49,7.99v0.22c5.44,0.78,8.82,3.77,8.82,8.88
		c0,6.99-4.88,10.66-13.43,10.66h-9.55V66.44z M77.79,82.76c7.99,0,11.1-2.55,11.1-7.44c0-5.22-3.44-7.33-10.77-7.33H71.8v14.76
		H77.79z M78.9,101.52c7.88,0,12.32-2.77,12.32-8.99c0-5.55-4.44-8.21-12.32-8.21h-7.1v17.2H78.9z"/>
	<path d="M123.36,66.44h21.31V68h-19.53v14.76h16.43v1.55h-16.43v17.2h20.09v1.55h-21.87V66.44z"/>
	<path class="st0" d="M184.41,84.09l-10.32-17.65h1.89l6.44,11.32c1,1.66,1.78,2.89,3,4.88h0.22c1.11-2,1.78-3.22,2.77-4.88
		l6.44-11.32h1.78L186.29,84.2l11.1,18.87h-1.89l-6.77-11.77c-1-1.78-2.11-3.55-3.44-5.77h-0.22c-1.22,2.22-2.22,4-3.22,5.77
		l-6.77,11.77h-1.78L184.41,84.09z"/>
	<path d="M232.91,102.2c4.38-2.28,6.66-5.33,6.83-10.43c-0.44,0.17-0.89,0.22-1.33,0.22c-1.78,0-3-0.89-3-2.94c0-2.11,1.44-3,2.94-3
		c2.28,0,3.5,2.05,3.5,5.16c0,6.05-3.39,10.16-8.21,12.38L232.91,102.2z M235.13,69.62c0-2.11,1.44-3.22,2.89-3.22
		s2.89,1.11,2.89,3.22c0,2.11-1.44,3.22-2.89,3.22S235.13,71.73,235.13,69.62z"/>
	<path class="st0" d="M280.25,101.52h9.54V68h-9.54v-1.55h20.87V68h-9.55v33.52h9.55v1.55h-20.87V101.52z"/>
	<path d="M332.04,66.44h1.83l15.21,26.97l4.05,7.1h0.11c-0.06-3.5-0.22-6.83-0.22-10.27V66.44h1.67v36.63h-1.83L337.64,76.1
		l-4.05-7.1h-0.11c0.06,3.5,0.22,6.6,0.22,10.04v24.03h-1.67V66.44z"/>
	<path d="M382.49,84.65c0-11.54,5.66-18.87,13.54-18.87c7.88,0,13.54,7.33,13.54,18.87c0,11.54-5.66,19.09-13.54,19.09
		C388.15,103.74,382.49,96.19,382.49,84.65z M407.68,84.65c0-10.54-4.72-17.2-11.65-17.2c-6.94,0-11.65,6.66-11.65,17.2
		s4.72,17.43,11.65,17.43C402.96,102.07,407.68,95.19,407.68,84.65z"/>
	<path d="M447.81,68h-12.99v-1.55h27.75V68h-12.99v35.07h-1.78V68z"/>
	<path class="st0" d="M490.93,101.52h9.54V68h-9.54v-1.55h20.87V68h-9.54v33.52h9.54v1.55h-20.87V101.52z"/>
	<path d="M540.49,84.65c0-11.54,5.66-18.87,13.54-18.87c7.88,0,13.54,7.33,13.54,18.87c0,11.54-5.66,19.09-13.54,19.09
		C546.16,103.74,540.49,96.19,540.49,84.65z M565.69,84.65c0-10.54-4.72-17.2-11.65-17.2c-6.94,0-11.65,6.66-11.65,17.2
		s4.72,17.43,11.65,17.43C560.97,102.07,565.69,95.19,565.69,84.65z"/>
	<path d="M595.38,66.44h1.83l15.21,26.97l4.05,7.1h0.11c-0.06-3.5-0.22-6.83-0.22-10.27V66.44h1.66v36.63h-1.83L600.99,76.1
		l-4.05-7.1h-0.11c0.06,3.5,0.22,6.6,0.22,10.04v24.03h-1.67V66.44z"/>
	<path d="M650.05,66.44h21.31V68h-19.53v14.76h16.43v1.55h-16.43v17.2h20.09v1.55h-21.87V66.44z"/>
	<path class="st0" d="M711.1,84.09l-10.32-17.65h1.89l6.44,11.32c1,1.66,1.78,2.89,3,4.88h0.22c1.11-2,1.78-3.22,2.77-4.88
		l6.44-11.32h1.78L712.99,84.2l11.1,18.87h-1.89l-6.77-11.77c-1-1.78-2.11-3.55-3.44-5.77h-0.22c-1.22,2.22-2.22,4-3.22,5.77
		l-6.77,11.77H700L711.1,84.09z"/>
	<path d="M69.58,170.66h9.54v-33.52h-9.54v-1.55h20.87v1.55H80.9v33.52h9.55v1.55H69.58V170.66z"/>
	<path d="M131.79,137.14h-12.99v-1.55h27.75v1.55h-12.99v35.07h-1.78V137.14z"/>
	<path class="st0" d="M184.41,153.23l-10.32-17.65h1.89l6.44,11.32c1,1.66,1.78,2.89,3,4.88h0.22c1.11-2,1.78-3.22,2.77-4.88
		l6.44-11.32h1.78l-10.32,17.76l11.1,18.87h-1.89l-6.77-11.77c-1-1.78-2.11-3.55-3.44-5.77h-0.22c-1.22,2.22-2.22,4-3.22,5.77
		l-6.77,11.77h-1.78L184.41,153.23z"/>
	<path d="M227.59,170.66h9.54v-33.52h-9.54v-1.55h20.87v1.55h-9.55v33.52h9.55v1.55h-20.87V170.66z"/>
	<path d="M278.48,167.33l1.22-1.22c2.77,3.11,6.88,5.11,11.54,5.11c6.22,0,10.21-3.22,10.21-7.88c0-4.88-3.39-6.44-7.33-8.1
		l-5.66-2.55c-3.33-1.39-7.99-3.55-7.99-8.99c0-5.22,4.66-8.77,10.88-8.77c4.66,0,8.32,2.05,10.54,4.33l-1.11,1.22
		c-2.22-2.33-5.44-3.88-9.43-3.88c-5.44,0-9.1,2.77-9.1,6.99c0,4.55,4.16,6.27,6.99,7.44l5.66,2.55c4.33,1.83,8.32,4,8.32,9.66
		c0,5.55-4.77,9.66-11.99,9.66C285.58,172.88,281.37,170.55,278.48,167.33z"/>
	<path class="st0" d="M330.32,135.59h1.89l7.1,21.98c1.44,4.55,2.44,7.88,4,12.38h0.22c1.55-4.5,2.55-7.82,4-12.38l7.1-21.98h1.78
		l-12.1,36.63h-1.78L330.32,135.59z"/>
	<path d="M395.14,137.14h-12.99v-1.55h27.75v1.55h-12.99v35.07h-1.78V137.14z"/>
	<path d="M439.37,135.59h21.31v1.55h-19.53v14.76h16.43v1.55h-16.43v17.2h20.09v1.55h-21.87V135.59z"/>
	<path d="M490.05,135.59h1.83l15.21,26.97l4.05,7.1h0.11c-0.06-3.5-0.22-6.83-0.22-10.27v-23.81h1.66v36.63h-1.83l-15.21-26.97
		l-4.05-7.1h-0.11c0.06,3.5,0.22,6.6,0.22,10.04v24.03h-1.66V135.59z"/>
	<path d="M542.49,135.59h1.78v16.32h19.53v-16.32h1.78v36.63h-1.78v-18.76h-19.53v18.76h-1.78V135.59z"/>
	<path d="M605.93,135.59h1.55l13.1,36.63h-1.89l-4.55-13.1h-14.93l-4.61,13.1h-1.78L605.93,135.59z M599.77,157.56h13.82l-2.55-7.33
		c-1.55-4.44-2.89-8.21-4.22-12.76h-0.22c-1.33,4.55-2.66,8.32-4.22,12.76L599.77,157.56z"/>
	<path d="M651.38,135.59h1.67v35.07h19.54v1.55h-21.2V135.59z"/>
	<path d="M704.05,135.59h20.98v1.55h-19.2v15.43h16.15v1.55h-16.15v18.09h-1.78V135.59z"/>
	<path d="M78.96,241.97c-7.33-0.61-12.49-7.99-12.49-19.04c0-11.54,5.66-18.87,13.54-18.87s13.54,7.33,13.54,18.87
		c0,11.04-5.22,18.48-12.6,19.04c1.22,3.66,4.16,5.88,8.99,5.88c1.11,0,1.94-0.17,2.55-0.39l0.39,1.78
		c-1.17,0.28-2.11,0.44-3.16,0.44C83.84,249.68,80.45,246.3,78.96,241.97z M91.66,222.93c0-10.54-4.72-17.2-11.65-17.2
		s-11.65,6.66-11.65,17.2c0,10.66,4.72,17.54,11.65,17.54S91.66,233.59,91.66,222.93z"/>
	<path d="M121.14,227.71v-22.98h1.78v22.53c0,10.1,4.66,13.1,9.77,13.1c5.22,0,9.88-3,9.88-13.1v-22.53h1.66v22.98
		c0,11.32-5.77,14.32-11.54,14.32S121.14,239.03,121.14,227.71z"/>
	<path d="M184.57,204.73h1.55l13.1,36.63h-1.89l-4.55-13.1h-14.93l-4.61,13.1h-1.78L184.57,204.73z M178.41,226.71h13.82l-2.55-7.33
		c-1.55-4.44-2.89-8.21-4.22-12.76h-0.22c-1.33,4.55-2.66,8.32-4.22,12.76L178.41,226.71z"/>
	<path d="M228.25,204.73h10.1c7.21,0,11.77,2.66,11.77,9.43c0,5.83-3.77,9.21-9.88,9.77l10.43,17.43h-2.11l-10.32-17.31h-8.21v17.31
		h-1.78V204.73z M237.69,222.49c6.77,0,10.54-2.66,10.54-8.32c0-5.77-3.77-7.88-10.54-7.88h-7.66v16.21H237.69z"/>
	<path d="M289.8,206.28h-12.99v-1.55h27.75v1.55h-12.99v35.07h-1.78V206.28z"/>
	<path d="M334.04,204.73h21.31v1.55h-19.53v14.76h16.43v1.55h-16.43v17.2h20.09v1.55h-21.87V204.73z"/>
	<path d="M386.26,204.73h10.1c7.21,0,11.77,2.66,11.77,9.43c0,5.83-3.77,9.21-9.88,9.77l10.43,17.43h-2.11l-10.32-17.31h-8.21v17.31
		h-1.78V204.73z M395.69,222.49c6.77,0,10.54-2.66,10.54-8.32c0-5.77-3.77-7.88-10.54-7.88h-7.66v16.21H395.69z"/>
	<path d="M447.81,206.28h-12.99v-1.55h27.75v1.55h-12.99v35.07h-1.78V206.28z"/>
	<path d="M485.55,204.67h1.61l4.33,25.81c0.33,2.94,0.89,5.83,1.28,8.77h0.11c0.94-2.94,1.83-5.83,2.66-8.77l4.88-16.2h1.94l5,16.2
		c0.78,2.94,1.67,5.88,2.55,8.77h0.22c0.39-2.89,0.89-5.83,1.28-8.77l4.16-25.81h1.55l-6.05,36.68h-2.33l-5.61-18.37
		c-0.61-2.11-1.05-4.16-1.67-6.33h-0.17c-0.61,2.16-1.11,4.22-1.78,6.33l-5.44,18.37h-2.33L485.55,204.67z"/>
	<path d="M544.71,204.73h21.31v1.55h-19.53v14.76h16.43v1.55h-16.43v17.2h20.09v1.55h-21.87V204.73z"/>
	<path d="M595.38,204.73h1.83l15.21,26.97l4.05,7.1h0.11c-0.06-3.5-0.22-6.83-0.22-10.27v-23.81h1.66v36.63h-1.83l-15.21-26.97
		l-4.05-7.1h-0.11c0.06,3.5,0.22,6.6,0.22,10.04v24.03h-1.67V204.73z"/>
	<path d="M658.49,206.28H645.5v-1.55h27.75v1.55h-12.99v35.07h-1.78V206.28z"/>
	<path d="M711.16,227.76l-12.65-23.03h1.78l6.88,12.54c1.72,2.83,3.16,5.72,4.88,8.66h0.22c1.78-2.94,3.38-5.83,4.99-8.71
		l6.66-12.49h1.67l-12.65,23.03v13.6h-1.78V227.76z"/>
	<path d="M72.02,273.87H93v1.55h-19.2v15.43h16.15v1.55H73.79v18.09h-1.78V273.87z"/>
	<path d="M122.25,308.95h9.55v-33.52h-9.55v-1.55h20.87v1.55h-9.55v33.52h9.55v1.55h-20.87V308.95z"/>
	<path d="M172.31,273.87h1.89l7.1,21.98c1.44,4.55,2.44,7.88,4,12.38h0.22c1.55-4.5,2.55-7.82,4-12.38l7.1-21.98h1.78l-12.1,36.63
		h-1.78L172.31,273.87z"/>
	<path d="M228.7,273.87h21.31v1.55h-19.53v14.76h16.43v1.55h-16.43v17.2h20.09v1.55H228.7V273.87z"/>
	<path class="st0" d="M278.7,273.87h2.55l6.88,17.76l2.44,6.55h0.22l2.33-6.55l6.99-17.76h2.55v36.63h-1.78v-27.47
		c0-2.28,0.11-4.83,0.17-7.1h-0.17l-2,5.94l-7.49,18.87h-1.5l-7.44-18.87l-2.16-5.94h-0.11c0.06,2.28,0.22,4.83,0.22,7.1v27.47
		h-1.72V273.87z"/>
	<path d="M331.37,273.87h2.55l6.88,17.76l2.44,6.55h0.22l2.33-6.55l6.99-17.76h2.55v36.63h-1.78v-27.47c0-2.28,0.11-4.83,0.17-7.1
		h-0.17l-2,5.94l-7.49,18.87h-1.5l-7.44-18.87l-2.16-5.94h-0.11c0.06,2.28,0.22,4.83,0.22,7.1v27.47h-1.72V273.87z"/>
	<path d="M385.59,308.95h9.54v-33.52h-9.54v-1.55h20.87v1.55h-9.55v33.52h9.55v1.55h-20.87V308.95z"/>
	<path d="M437.38,273.87h1.83l15.21,26.97l4.05,7.1h0.11c-0.06-3.5-0.22-6.83-0.22-10.27v-23.81h1.66v36.63h-1.83l-15.21-26.97
		l-4.05-7.1h-0.11c0.06,3.5,0.22,6.6,0.22,10.04v24.03h-1.66V273.87z"/>
	<path d="M489.82,296.85v-22.98h1.78v22.53c0,10.1,4.66,13.1,9.77,13.1c5.22,0,9.88-3,9.88-13.1v-22.53h1.67v22.98
		c0,11.32-5.77,14.32-11.54,14.32C495.6,311.17,489.82,308.17,489.82,296.85z"/>
	<path d="M553.15,275.43h-12.99v-1.55h27.75v1.55h-12.99v35.07h-1.78V275.43z"/>
	<path d="M597.38,273.87h21.31v1.55h-19.53v14.76h16.43v1.55h-16.43v17.2h20.09v1.55h-21.87V273.87z"/>
	<path d="M647.17,305.62l1.22-1.22c2.78,3.11,6.88,5.11,11.54,5.11c6.21,0,10.21-3.22,10.21-7.88c0-4.88-3.38-6.44-7.33-8.1
		l-5.66-2.55c-3.33-1.39-7.99-3.55-7.99-8.99c0-5.22,4.66-8.77,10.88-8.77c4.66,0,8.33,2.05,10.54,4.33l-1.11,1.22
		c-2.22-2.33-5.44-3.88-9.43-3.88c-5.44,0-9.1,2.77-9.1,6.99c0,4.55,4.16,6.27,6.99,7.44l5.66,2.55c4.33,1.83,8.33,4,8.33,9.66
		c0,5.55-4.77,9.66-11.99,9.66C654.27,311.17,650.05,308.84,647.17,305.62z"/>
	<path class="st0" d="M700.06,273.87h2.55l6.88,17.76l2.44,6.55h0.22l2.33-6.55l6.99-17.76h2.55v36.63h-1.78v-27.47
		c0-2.28,0.11-4.83,0.17-7.1h-0.17l-2,5.94l-7.49,18.87h-1.5l-7.44-18.87l-2.16-5.94h-0.11c0.06,2.28,0.22,4.83,0.22,7.1v27.47
		h-1.72V273.87z"/>
	<path d="M70.24,343.02h9.55c8.21,0,12.88,2.66,12.88,9.99c0,6.99-4.66,10.43-12.88,10.43h-7.77v16.21h-1.78V343.02z M79.12,361.89
		c7.88,0,11.65-2.55,11.65-8.88c0-6.44-3.77-8.44-11.65-8.44h-7.1v17.31H79.12z"/>
	<path d="M131.9,343.02h1.55l13.1,36.63h-1.89l-4.55-13.1h-14.93l-4.61,13.1h-1.78L131.9,343.02z M125.74,364.99h13.82l-2.55-7.33
		c-1.55-4.44-2.89-8.21-4.22-12.76h-0.22c-1.33,4.55-2.66,8.32-4.22,12.76L125.74,364.99z"/>
	<path d="M173.14,374.76l1.22-1.22c2.77,3.11,6.88,5.11,11.54,5.11c6.22,0,10.21-3.22,10.21-7.88c0-4.88-3.39-6.44-7.33-8.1
		l-5.66-2.55c-3.33-1.39-7.99-3.55-7.99-8.99c0-5.22,4.66-8.77,10.88-8.77c4.66,0,8.32,2.05,10.54,4.33l-1.11,1.22
		c-2.22-2.33-5.44-3.88-9.43-3.88c-5.44,0-9.1,2.77-9.1,6.99c0,4.55,4.16,6.27,6.99,7.44l5.66,2.55c4.33,1.83,8.32,4,8.32,9.66
		c0,5.55-4.77,9.66-11.99,9.66C180.24,380.31,176.03,377.98,173.14,374.76z"/>
	<path d="M237.13,344.57h-12.99v-1.55h27.75v1.55h-12.99v35.07h-1.78V344.57z"/>
	<path d="M289.8,344.57h-12.99v-1.55h27.75v1.55h-12.99v35.07h-1.78V344.57z"/>
	<path d="M329.82,361.22c0-11.54,5.66-18.87,13.54-18.87s13.54,7.33,13.54,18.87c0,11.54-5.66,19.09-13.54,19.09
		S329.82,372.76,329.82,361.22z M355.01,361.22c0-10.54-4.72-17.2-11.65-17.2s-11.65,6.66-11.65,17.2s4.72,17.43,11.65,17.43
		S355.01,371.76,355.01,361.22z"/>
	<path class="st0" d="M395.08,360.67l-10.32-17.65h1.89l6.44,11.32c1,1.66,1.78,2.89,3,4.88h0.22c1.11-2,1.78-3.22,2.77-4.88
		l6.44-11.32h1.78l-10.32,17.76l11.1,18.87h-1.89l-6.77-11.77c-1-1.78-2.11-3.55-3.44-5.77h-0.22c-1.22,2.22-2.22,4-3.22,5.77
		l-6.77,11.77h-1.78L395.08,360.67z"/>
	<path d="M435.16,361.22c0-11.54,5.66-18.87,13.54-18.87c7.88,0,13.54,7.33,13.54,18.87c0,11.54-5.66,19.09-13.54,19.09
		C440.82,380.31,435.16,372.76,435.16,361.22z M460.35,361.22c0-10.54-4.72-17.2-11.65-17.2c-6.94,0-11.65,6.66-11.65,17.2
		s4.72,17.43,11.65,17.43C455.63,378.65,460.35,371.76,460.35,361.22z"/>
	<path d="M490.05,343.02h1.83l15.21,26.97l4.05,7.1h0.11c-0.06-3.5-0.22-6.83-0.22-10.27v-23.81h1.66v36.63h-1.83l-15.21-26.97
		l-4.05-7.1h-0.11c0.06,3.5,0.22,6.6,0.22,10.04v24.03h-1.66V343.02z"/>
	<path d="M544.71,343.02h21.31v1.55h-19.53v14.76h16.43v1.55h-16.43v17.2h20.09v1.55h-21.87V343.02z"/>
	<path d="M605.82,344.57h-12.99v-1.55h27.75v1.55h-12.99v35.07h-1.78V344.57z"/>
	<path d="M643.56,342.96h1.61l4.33,25.81c0.33,2.94,0.89,5.83,1.28,8.77h0.11c0.94-2.94,1.83-5.83,2.66-8.77l4.88-16.2h1.94l5,16.2
		c0.78,2.94,1.67,5.88,2.55,8.77h0.22c0.39-2.89,0.89-5.83,1.28-8.77l4.16-25.81h1.55l-6.05,36.68h-2.33l-5.61-18.37
		c-0.61-2.11-1.05-4.16-1.67-6.33h-0.17c-0.61,2.16-1.11,4.22-1.78,6.33l-5.44,18.37h-2.33L643.56,342.96z"/>
	<path d="M698.5,361.22c0-11.54,5.66-18.87,13.54-18.87c7.88,0,13.54,7.33,13.54,18.87c0,11.54-5.66,19.09-13.54,19.09
		C704.16,380.31,698.5,372.76,698.5,361.22z M723.7,361.22c0-10.54-4.72-17.2-11.65-17.2c-6.94,0-11.65,6.66-11.65,17.2
		s4.72,17.43,11.65,17.43C718.98,378.65,723.7,371.76,723.7,361.22z"/>
	<path d="M79.12,413.72H66.14v-1.55h27.75v1.55H80.9v35.07h-1.78V413.72z"/>
	<path d="M121.14,412.16h1.78v16.32h19.53v-16.32h1.78v36.63h-1.78v-18.76h-19.53v18.76h-1.78V412.16z"/>
	<path d="M175.58,412.16h10.1c7.21,0,11.77,2.66,11.77,9.43c0,5.83-3.77,9.21-9.88,9.77L198,448.79h-2.11l-10.32-17.31h-8.21v17.31
		h-1.78V412.16z M185.02,429.92c6.77,0,10.54-2.66,10.54-8.32c0-5.77-3.77-7.88-10.54-7.88h-7.66v16.2H185.02z"/>
	<path d="M228.7,412.16h21.31v1.55h-19.53v14.76h16.43v1.55h-16.43v17.2h20.09v1.55H228.7V412.16z"/>
	<path d="M281.37,412.16h21.31v1.55h-19.53v14.76h16.43v1.55h-16.43v17.2h20.09v1.55h-21.87V412.16z"/>
	<path d="M335.37,412.16h20.98v1.55h-19.2v15.43h16.15v1.55h-16.15v18.09h-1.78V412.16z"/>
	<path d="M382.49,430.36c0-11.54,5.66-18.87,13.54-18.87s13.54,7.33,13.54,18.87s-5.66,19.09-13.54,19.09
		S382.49,441.91,382.49,430.36z M407.68,430.36c0-10.54-4.72-17.2-11.65-17.2s-11.65,6.66-11.65,17.2s4.72,17.43,11.65,17.43
		S407.68,440.91,407.68,430.36z"/>
	<path d="M437.15,435.14v-22.98h1.78v22.53c0,10.1,4.66,13.1,9.77,13.1c5.22,0,9.88-3,9.88-13.1v-22.53h1.67v22.98
		c0,11.32-5.77,14.32-11.54,14.32C442.93,449.46,437.15,446.46,437.15,435.14z"/>
	<path d="M491.6,412.16h10.1c7.21,0,11.77,2.66,11.77,9.43c0,5.83-3.77,9.21-9.88,9.77l10.43,17.43h-2.11l-10.32-17.31h-8.21v17.31
		h-1.78V412.16z M501.03,429.92c6.77,0,10.54-2.66,10.54-8.32c0-5.77-3.77-7.88-10.54-7.88h-7.66v16.2H501.03z"/>
	<path d="M546.04,412.16h20.98v1.55h-19.2v15.43h16.15v1.55h-16.15v18.09h-1.78V412.16z"/>
	<path d="M596.27,447.24h9.54v-33.52h-9.54v-1.55h20.87v1.55h-9.54v33.52h9.54v1.55h-20.87V447.24z"/>
	<path d="M646.33,412.16h1.89l7.1,21.98c1.44,4.55,2.44,7.88,4,12.38h0.22c1.55-4.5,2.55-7.83,4-12.38l7.1-21.98h1.78l-12.1,36.63
		h-1.78L646.33,412.16z"/>
	<path d="M702.72,412.16h21.31v1.55H704.5v14.76h16.43v1.55H704.5v17.2h20.09v1.55h-21.87V412.16z"/>
	<path d="M67.8,513.05l1.22-1.22c2.77,3.11,6.88,5.11,11.54,5.11c6.22,0,10.21-3.22,10.21-7.88c0-4.88-3.39-6.44-7.33-8.1
		l-5.66-2.55c-3.33-1.39-7.99-3.55-7.99-8.99c0-5.22,4.66-8.77,10.88-8.77c4.66,0,8.32,2.05,10.54,4.33l-1.11,1.22
		c-2.22-2.33-5.44-3.88-9.43-3.88c-5.44,0-9.1,2.78-9.1,6.99c0,4.55,4.16,6.27,6.99,7.44l5.66,2.55c4.33,1.83,8.32,4,8.32,9.66
		c0,5.55-4.77,9.66-11.99,9.66C74.9,518.6,70.69,516.27,67.8,513.05z"/>
	<path d="M122.25,516.38h9.55v-33.52h-9.55v-1.55h20.87v1.55h-9.55v33.52h9.55v1.55h-20.87V516.38z"/>
	<path d="M184.41,498.95l-10.32-17.65h1.89l6.44,11.32c1,1.67,1.78,2.89,3,4.88h0.22c1.11-2,1.78-3.22,2.77-4.88l6.44-11.32h1.78
		l-10.32,17.76l11.1,18.87h-1.89l-6.77-11.77c-1-1.78-2.11-3.55-3.44-5.77h-0.22c-1.22,2.22-2.22,4-3.22,5.77l-6.77,11.77h-1.78
		L184.41,498.95z"/>
	<path d="M225.81,513.05l1.22-1.22c2.77,3.11,6.88,5.11,11.54,5.11c6.22,0,10.21-3.22,10.21-7.88c0-4.88-3.39-6.44-7.33-8.1
		l-5.66-2.55c-3.33-1.39-7.99-3.55-7.99-8.99c0-5.22,4.66-8.77,10.88-8.77c4.66,0,8.32,2.05,10.54,4.33l-1.11,1.22
		c-2.22-2.33-5.44-3.88-9.43-3.88c-5.44,0-9.1,2.78-9.1,6.99c0,4.55,4.16,6.27,6.99,7.44l5.66,2.55c4.33,1.83,8.32,4,8.32,9.66
		c0,5.55-4.77,9.66-11.99,9.66C232.91,518.6,228.7,516.27,225.81,513.05z"/>
	<path d="M281.37,481.3h21.31v1.55h-19.53v14.76h16.43v1.55h-16.43v17.2h20.09v1.55h-21.87V481.3z"/>
	<path d="M330.32,481.3h1.89l7.1,21.98c1.44,4.55,2.44,7.88,4,12.38h0.22c1.55-4.5,2.55-7.83,4-12.38l7.1-21.98h1.78l-12.1,36.63
		h-1.78L330.32,481.3z"/>
	<path d="M386.7,481.3h21.31v1.55h-19.53v14.76h16.43v1.55h-16.43v17.2h20.09v1.55H386.7V481.3z"/>
	<path d="M437.38,481.3h1.83l15.21,26.97l4.05,7.1h0.11c-0.06-3.5-0.22-6.83-0.22-10.27V481.3h1.66v36.63h-1.83l-15.21-26.97
		l-4.05-7.1h-0.11c0.06,3.5,0.22,6.6,0.22,10.04v24.03h-1.66V481.3z"/>
	<path d="M492.04,481.3h21.31v1.55h-19.53v14.76h16.43v1.55h-16.43v17.2h20.09v1.55h-21.87V481.3z"/>
	<path d="M543.6,516.38h9.54v-33.52h-9.54v-1.55h20.87v1.55h-9.54v33.52h9.54v1.55H543.6V516.38z"/>
	<path d="M593.44,499.51c0-11.54,6.21-18.87,15.65-18.87c4.77,0,7.71,2.33,9.6,4.33l-1.11,1.22c-1.89-2.11-4.5-3.88-8.49-3.88
		c-8.55,0-13.76,6.66-13.76,17.2s4.99,17.43,13.32,17.43c3.5,0,6.72-1.11,8.55-3v-12.1h-8.88v-1.55h10.71v14.21
		c-2.22,2.44-5.77,4.11-10.49,4.11C599.44,518.6,593.44,511.05,593.44,499.51z"/>
	<path d="M647.83,481.3h1.78v16.32h19.53V481.3h1.78v36.63h-1.78v-18.76h-19.53v18.76h-1.78V481.3z"/>
	<path d="M711.16,482.86h-12.99v-1.55h27.75v1.55h-12.99v35.07h-1.78V482.86z"/>
	<path d="M68.69,550.45h1.83l15.21,26.97l4.05,7.1h0.11c-0.06-3.5-0.22-6.83-0.22-10.27v-23.81h1.67v36.63H89.5l-15.21-26.97
		l-4.05-7.1h-0.11c0.06,3.5,0.22,6.6,0.22,10.04v24.03h-1.67V550.45z"/>
	<path d="M122.25,585.52h9.55V552h-9.55v-1.55h20.87V552h-9.55v33.52h9.55v1.55h-20.87V585.52z"/>
	<path d="M174.03,550.45h1.83l15.21,26.97l4.05,7.1h0.11c-0.06-3.5-0.22-6.83-0.22-10.27v-23.81h1.67v36.63h-1.83l-15.21-26.97
		l-4.05-7.1h-0.11c0.06,3.5,0.22,6.6,0.22,10.04v24.03h-1.67V550.45z"/>
	<path d="M228.7,550.45h21.31V552h-19.53v14.76h16.43v1.55h-16.43v17.2h20.09v1.55H228.7V550.45z"/>
	<path d="M289.8,552h-12.99v-1.55h27.75V552h-12.99v35.07h-1.78V552z"/>
	<path d="M334.04,550.45h21.31V552h-19.53v14.76h16.43v1.55h-16.43v17.2h20.09v1.55h-21.87V550.45z"/>
	<path d="M384.71,550.45h1.83l15.21,26.97l4.05,7.1h0.11c-0.06-3.5-0.22-6.83-0.22-10.27v-23.81h1.66v36.63h-1.83l-15.21-26.97
		l-4.05-7.1h-0.11c0.06,3.5,0.22,6.6,0.22,10.04v24.03h-1.67V550.45z"/>
	<path d="M439.37,550.45h21.31V552h-19.53v14.76h16.43v1.55h-16.43v17.2h20.09v1.55h-21.87V550.45z"/>
	<path d="M493.38,550.45h1.67v35.07h19.54v1.55h-21.2V550.45z"/>
	<path d="M544.71,550.45h21.31V552h-19.53v14.76h16.43v1.55h-16.43v17.2h20.09v1.55h-21.87V550.45z"/>
	<path d="M593.67,550.45h1.89l7.1,21.98c1.44,4.55,2.44,7.88,4,12.38h0.22c1.55-4.5,2.55-7.83,4-12.38l7.1-21.98h1.78l-12.1,36.63
		h-1.78L593.67,550.45z"/>
	<path d="M650.05,550.45h21.31V552h-19.53v14.76h16.43v1.55h-16.43v17.2h20.09v1.55h-21.87V550.45z"/>
	<path d="M700.72,550.45h1.83l15.21,26.97l4.05,7.1h0.11c-0.06-3.5-0.22-6.83-0.22-10.27v-23.81h1.66v36.63h-1.83l-15.21-26.97
		l-4.05-7.1h-0.11c0.06,3.5,0.22,6.6,0.22,10.04v24.03h-1.67V550.45z"/>
	<path d="M79.12,621.15H66.14v-1.55h27.75v1.55H80.9v35.07h-1.78V621.15z"/>
	<path d="M116.86,619.54h1.61l4.33,25.81c0.33,2.94,0.89,5.83,1.28,8.77h0.11c0.94-2.94,1.83-5.83,2.66-8.77l4.88-16.21h1.94
		l4.99,16.21c0.78,2.94,1.66,5.88,2.55,8.77h0.22c0.39-2.89,0.89-5.83,1.28-8.77l4.16-25.81h1.55l-6.05,36.68h-2.33l-5.6-18.37
		c-0.61-2.11-1.05-4.16-1.67-6.33h-0.17c-0.61,2.17-1.11,4.22-1.78,6.33l-5.44,18.37h-2.33L116.86,619.54z"/>
	<path d="M176.03,619.59h21.31v1.55H177.8v14.76h16.43v1.55H177.8v17.2h20.09v1.55h-21.87V619.59z"/>
	<path d="M230.03,619.59h1.67v35.07h19.53v1.55h-21.2V619.59z"/>
	<path d="M277.65,619.59h1.89l7.1,21.98c1.44,4.55,2.44,7.88,4,12.38h0.22c1.55-4.5,2.55-7.83,4-12.38l7.1-21.98h1.78l-12.1,36.63
		h-1.78L277.65,619.59z"/>
	<path d="M334.04,619.59h21.31v1.55h-19.53v14.76h16.43v1.55h-16.43v17.2h20.09v1.55h-21.87V619.59z"/>
	<path class="st0" d="M382.99,619.59h1.89l7.1,21.98c1.44,4.55,2.44,7.88,4,12.38h0.22c1.55-4.5,2.55-7.83,4-12.38l7.1-21.98h1.78
		l-12.1,36.63h-1.78L382.99,619.59z"/>
	<path d="M435.16,637.79c0-11.54,5.66-18.87,13.54-18.87c7.88,0,13.54,7.33,13.54,18.87s-5.66,19.09-13.54,19.09
		C440.82,656.89,435.16,649.34,435.16,637.79z M460.35,637.79c0-10.54-4.72-17.2-11.65-17.2c-6.94,0-11.65,6.66-11.65,17.2
		s4.72,17.43,11.65,17.43C455.63,655.22,460.35,648.34,460.35,637.79z"/>
	<path d="M488.83,637.79c0-11.54,6.16-18.87,15.48-18.87c4.22,0,7.44,2.11,9.32,4.33l-1.11,1.22c-2-2.33-4.77-3.88-8.21-3.88
		c-8.44,0-13.6,6.66-13.6,17.2s5.16,17.43,13.38,17.43c3.88,0,6.77-1.55,9.54-4.66l1.11,1.11c-2.77,3.22-5.99,5.22-10.77,5.22
		C494.99,656.89,488.83,649.34,488.83,637.79z"/>
	<path d="M546.04,619.59h1.67v35.07h19.54v1.55h-21.2V619.59z"/>
	<path d="M593.17,637.79c0-11.54,5.66-18.87,13.54-18.87c7.88,0,13.54,7.33,13.54,18.87s-5.66,19.09-13.54,19.09
		C598.83,656.89,593.17,649.34,593.17,637.79z M618.36,637.79c0-10.54-4.72-17.2-11.65-17.2c-6.94,0-11.65,6.66-11.65,17.2
		s4.72,17.43,11.65,17.43C613.64,655.22,618.36,648.34,618.36,637.79z"/>
	<path d="M646.83,637.79c0-11.54,6.16-18.87,15.48-18.87c4.22,0,7.44,2.11,9.32,4.33l-1.11,1.22c-2-2.33-4.77-3.88-8.21-3.88
		c-8.44,0-13.6,6.66-13.6,17.2s5.16,17.43,13.38,17.43c3.88,0,6.77-1.55,9.54-4.66l1.11,1.11c-2.77,3.22-5.99,5.22-10.77,5.22
		C652.99,656.89,646.83,649.34,646.83,637.79z"/>
	<path d="M702.17,619.59h1.78v21.09h0.11l19.09-21.09h2.16l-12.04,13.32l13.65,23.31h-2.11l-12.82-21.92l-8.05,8.93v12.99h-1.78
		V619.59z"/>
	<path d="M72.02,688.74H93v1.55h-19.2v15.43h16.15v1.55H73.79v18.09h-1.78V688.74z"/>
	<path d="M131.9,688.74h1.55l13.1,36.63h-1.89l-4.55-13.1h-14.93l-4.61,13.1h-1.78L131.9,688.74z M125.74,710.71h13.82l-2.55-7.33
		c-1.55-4.44-2.89-8.21-4.22-12.76h-0.22c-1.33,4.55-2.66,8.32-4.22,12.76L125.74,710.71z"/>
	<path d="M174.92,723.81h9.55v-33.52h-9.55v-1.55h20.87v1.55h-9.55v33.52h9.55v1.55h-20.87V723.81z"/>
	<path d="M230.03,688.74h1.67v35.07h19.53v1.55h-21.2V688.74z"/>
	<path d="M281.37,688.74h21.31v1.55h-19.53v14.76h16.43v1.55h-16.43v17.2h20.09v1.55h-21.87V688.74z"/>
	<path d="M342.47,690.29h-12.99v-1.55h27.75v1.55h-12.99v35.07h-1.78V690.29z"/>
	<path d="M384.48,688.74h1.78v16.32h19.53v-16.32h1.78v36.63h-1.78v-18.76h-19.53v18.76h-1.78V688.74z"/>
	<path class="st0" d="M438.26,723.81h9.54v-33.52h-9.54v-1.55h20.87v1.55h-9.54v33.52h9.54v1.55h-20.87V723.81z"/>
	<path class="st0" d="M490.93,723.81h9.54v-33.52h-9.54v-1.55h20.87v1.55h-9.54v33.52h9.54v1.55h-20.87V723.81z"/>
	<path d="M544.16,688.74h1.78v21.09h0.11l19.09-21.09h2.16l-12.04,13.32l13.65,23.31h-2.11l-12.82-21.92l-8.05,8.93v12.99h-1.78
		V688.74z"/>
	<path class="st0" d="M596.27,723.81h9.54v-33.52h-9.54v-1.55h20.87v1.55h-9.54v33.52h9.54v1.55h-20.87V723.81z"/>
	<path d="M648.05,688.74h1.83l15.21,26.97l4.05,7.1h0.11c-0.06-3.5-0.22-6.83-0.22-10.27v-23.81h1.66v36.63h-1.83l-15.21-26.97
		l-4.05-7.1h-0.11c0.06,3.5,0.22,6.6,0.22,10.04v24.03h-1.66V688.74z"/>
	<path d="M700.95,688.74h8.21c11.32,0,16.43,7.33,16.43,18.2s-5.11,18.42-16.43,18.42h-8.21V688.74z M708.94,723.81
		c10.43,0,14.76-7.21,14.76-16.87s-4.33-16.65-14.76-16.65h-6.22v33.52H708.94z"/>
</g>
<rect x="36" y="36" class="st1" width="720" height="720"/>
</svg>
